<svg xmlns="http://www.w3.org/2000/svg" enable-background="new 0 0 512 512" viewBox="0 0 512 512"><path fill="#f8d700" d="M160,405.1c-85.5,0-155-69.5-155-155s69.5-155,155-155s155,69.5,155,155
				S245.5,405.1,160,405.1z M160,128.2c-67.2,0-121.9,54.7-121.9,121.9S92.8,372,160,372s121.9-54.7,121.9-121.9
				S227.2,128.2,160,128.2z"/><path fill="#f8b700" d="M176,111.1c-85.5,0-155,69.5-155,155c0,38.7,14.2,74.1,37.7,101.3
			c27.2,23.5,62.6,37.7,101.3,37.7c85.5,0,155-69.5,155-155c0-38.7-14.2-74.1-37.7-101.3C250.1,125.3,214.7,111.1,176,111.1z
			 M176,388c-37.7,0-71.4-17.2-93.8-44.1c-26.9-22.4-44.1-56.1-44.1-93.8c0-67.2,54.7-121.9,121.9-121.9c37.7,0,71.4,17.2,93.8,44.1
			c26.9,22.4,44.1,56.1,44.1,93.8C297.9,333.3,243.2,388,176,388z"/><path fill="#f8b700" d="M176,111.1c-85.5,0-155,69.5-155,155c0,38.7,14.2,74.1,37.7,101.3
			c27.2,23.5,62.6,37.7,101.3,37.7c85.5,0,155-69.5,155-155c0-38.7-14.2-74.1-37.7-101.3C250.1,125.3,214.7,111.1,176,111.1z
			 M176,388c-37.7,0-71.4-17.2-93.8-44.1c-26.9-22.4-44.1-56.1-44.1-93.8c0-67.2,54.7-121.9,121.9-121.9c37.7,0,71.4,17.2,93.8,44.1
			c26.9,22.4,44.1,56.1,44.1,93.8C297.9,333.3,243.2,388,176,388z"/><path fill="#f8d700" d="M352,507.1c-85.5,0-155-69.5-155-155s69.5-155,155-155s155,69.5,155,155
				S437.5,507.1,352,507.1z M352,230.2c-67.2,0-121.9,54.7-121.9,121.9S284.8,474,352,474s121.9-54.7,121.9-121.9
				S419.2,230.2,352,230.2z"/><path fill="#f8b700" d="M366,211.1c-85.5,0-155,69.5-155,155c0,39.2,14.6,75,38.7,102.3
			c27.3,24.1,63.1,38.7,102.3,38.7c85.5,0,155-69.5,155-155c0-39.2-14.6-75-38.7-102.3C441,225.7,405.2,211.1,366,211.1z M366,488
			c-37.2,0-70.5-16.7-92.9-43c-26.3-22.4-43-55.7-43-92.9c0-67.2,54.7-121.9,121.9-121.9c37.2,0,70.5,16.7,92.9,43
			c26.3,22.4,43,55.7,43,92.9C487.9,433.3,433.2,488,366,488z"/><path fill="#db332a" d="M385.1,131L385.1,131c-9.2-9.2-24-9.2-33.1,0c-9.2-9.2-24-9.2-33.1,0
			c-9.2,9.2-9.2,24,0,33.1l33.1,33.1l33.1-33.1C394.3,155,394.3,140.2,385.1,131z"/><polygon fill="#db332a" points="191.3 5 207.1 40 159.6 95 112 40 128 5"/><polygon fill="#b5100b" points="143.8 40 128 5 112 40"/><polygon fill="#b5100b" points="207.1 40 191.3 5 175.4 40"/><polygon fill="#b5100b" points="175.5 40 159.6 5 143.7 40"/><polygon fill="#b5100b" points="143.7 40 159.5 95 175.5 40"/><path fill="#f8d700" d="M281.9,250.1c0,0.8,0,1.6,0,2.3c9.9-7,20.8-12.5,32.5-16.3c-1-11.3-3.2-22.2-6.5-32.6
				c-10.8,3.2-21,7.5-30.7,12.9C280.2,227.1,281.9,238.4,281.9,250.1z"/><path fill="#f8b700" d="M295.9,243.9c5.9-3.1,12.1-5.7,18.5-7.8c-1-11.3-3.2-22.2-6.5-32.6
				c-7.8,2.3-15.3,5.2-22.5,8.7C290.2,222.1,293.8,232.7,295.9,243.9z"/></svg>